<?xml version="1.0" standalone="no"?>
<!DOCTYPE svg PUBLIC "-//W3C//DTD SVG 20010904//EN"
 "http://www.w3.org/TR/2001/REC-SVG-20010904/DTD/svg10.dtd">
<svg version="1.0" xmlns="http://www.w3.org/2000/svg"
 width="700.000000pt" height="700.000000pt" viewBox="0 0 700.000000 700.000000"
 preserveAspectRatio="xMidYMid meet">
<metadata>
Created by potrace 1.14, written by Peter Selinger 2001-2017
</metadata>
<g transform="translate(0.000000,700.000000) scale(0.100000,-0.100000)"
fill="#000000" stroke="none">
<path d="M2600 6601 l0 -269 34 -6 c19 -4 46 -4 60 0 25 6 26 8 26 94 0 113 7
150 30 150 23 0 26 -22 26 -142 -1 -106 0 -108 59 -108 66 0 65 -4 65 169 -1
117 -4 161 -15 174 -19 26 -88 34 -119 13 -14 -9 -30 -16 -36 -16 -6 0 -10 39
-10 105 l0 105 -60 0 -60 0 0 -269z"/>
<path d="M2976 6849 c-52 -41 -20 -119 49 -119 49 0 79 32 71 74 -12 61 -71
84 -120 45z"/>
<path d="M5060 6600 l-1 -269 24 -6 c13 -4 41 -5 63 -3 l39 3 5 120 c5 112 6
120 25 120 19 0 20 -8 25 -120 l5 -120 50 1 c28 1 56 2 64 3 11 1 13 31 9 160
-3 138 -6 162 -22 180 -26 28 -89 28 -124 0 l-27 -21 -3 111 -3 111 -64 0 -64
0 -1 -270z"/>
<path d="M2017 6773 c-4 -3 -7 -26 -7 -50 0 -36 -3 -43 -20 -43 -18 0 -20 -7
-20 -54 0 -45 3 -54 20 -59 19 -5 20 -14 20 -121 l0 -116 35 -1 c19 -1 47 -2
63 -3 l27 -1 3 123 c2 114 4 122 22 122 17 0 20 7 20 40 0 22 1 43 3 48 1 4
-8 11 -20 17 -19 8 -23 18 -23 57 l0 48 -58 0 c-32 0 -62 -3 -65 -7z"/>
<path d="M2410 6735 c0 -39 -3 -47 -25 -55 -22 -8 -25 -15 -25 -60 0 -42 3
-50 19 -50 27 0 32 -22 30 -131 -1 -53 1 -101 4 -106 3 -4 29 -8 59 -8 l53 0
3 118 c3 115 3 118 27 127 21 8 25 16 25 47 0 43 -7 57 -32 66 -14 5 -18 18
-18 52 l0 45 -60 0 -60 0 0 -45z"/>
<path d="M4230 6730 c0 -43 -3 -50 -20 -50 -18 0 -20 -7 -20 -54 0 -45 3 -54
20 -59 19 -5 20 -14 20 -120 l0 -114 39 -6 c21 -2 51 -2 65 0 24 5 27 10 25
42 -1 20 -1 73 0 119 1 75 3 82 21 82 17 0 20 7 20 51 0 42 -3 52 -20 56 -21
6 -22 8 -24 63 l-1 35 -62 3 -63 3 0 -51z"/>
<path d="M1809 6690 c-61 -11 -109 -59 -109 -111 0 -37 29 -77 80 -108 57 -35
66 -61 21 -61 -17 0 -33 5 -36 10 -12 20 -33 9 -54 -26 -12 -19 -21 -37 -21
-40 0 -3 19 -14 43 -24 108 -50 216 -2 217 96 0 50 -24 84 -86 120 -62 36 -55
79 9 55 23 -9 29 -7 47 16 25 32 25 40 -1 54 -37 19 -72 25 -110 19z"/>
<path d="M1146 6683 c-4 -5 -42 -8 -84 -8 l-77 0 -3 -237 -2 -238 60 0 60 0 0
70 c0 39 4 70 8 70 5 0 17 -7 28 -15 25 -19 74 -19 102 1 43 30 56 71 54 177
-2 104 -14 143 -54 171 -23 17 -79 22 -92 9z m13 -124 c25 -73 6 -151 -34
-135 -19 7 -22 135 -3 154 18 18 25 15 37 -19z"/>
<path d="M1409 6666 c-47 -32 -69 -87 -69 -174 0 -65 17 -112 53 -146 41 -39
142 -48 193 -17 97 59 99 282 2 341 -49 29 -132 27 -179 -4z m108 -88 c27 -34
21 -146 -9 -164 -20 -12 -38 28 -38 84 0 75 22 112 47 80z"/>
<path d="M3183 6668 c-80 -57 -68 -137 28 -194 71 -43 63 -87 -10 -57 -38 15
-37 15 -67 -40 -15 -28 -15 -28 28 -47 82 -37 172 -20 203 40 34 66 3 140 -76
180 -57 30 -51 72 8 49 25 -9 30 -7 50 16 30 34 29 41 -7 60 -44 23 -119 19
-157 -7z"/>
<path d="M3675 6680 c-54 -22 -85 -89 -85 -187 0 -113 51 -183 135 -183 55 0
71 16 70 70 0 38 -3 43 -25 47 -37 5 -45 19 -44 73 1 54 14 77 47 82 18 2 22
10 23 38 1 56 -11 70 -59 69 -23 0 -51 -4 -62 -9z"/>
<path d="M3871 6666 c-24 -25 -51 -111 -51 -163 0 -140 87 -234 167 -178 15
11 28 12 45 6 13 -5 34 -7 48 -6 14 1 35 3 48 4 l22 1 -2 173 -3 172 -53 3
c-30 2 -60 -2 -67 -8 -11 -9 -20 -8 -37 4 -34 24 -90 21 -117 -8z m133 -92
c12 -5 16 -20 16 -64 0 -69 -7 -90 -27 -90 -37 0 -56 76 -33 134 10 27 17 30
44 20z"/>
<path d="M5505 6683 c-57 -15 -94 -88 -95 -184 0 -76 16 -123 55 -159 23 -22
36 -25 95 -25 59 0 72 3 95 25 23 21 55 76 55 95 0 3 -22 5 -50 5 -39 0 -52
-4 -60 -20 -21 -40 -70 -18 -70 32 0 30 1 30 150 32 31 1 35 4 38 30 6 46 -17
112 -49 142 -24 23 -39 28 -86 30 -32 2 -67 0 -78 -3z m99 -98 c9 -35 1 -45
-35 -45 -34 0 -46 19 -29 49 16 31 56 28 64 -4z"/>
<path d="M5915 6668 c-25 -19 -28 -20 -37 -5 -7 13 -23 17 -63 17 l-55 0 0
-175 0 -175 24 -6 c13 -3 38 -4 57 -2 l34 3 6 115 c8 142 5 130 29 130 24 0
21 12 29 -130 l6 -115 55 0 55 0 0 161 c0 145 -2 164 -19 183 -26 28 -84 28
-121 -1z"/>
<path d="M2967 6674 c-4 -4 -7 -83 -7 -175 0 -125 3 -168 13 -171 6 -2 35 -4
62 -3 l50 0 0 175 0 175 -55 3 c-31 2 -59 0 -63 -4z"/>
<path d="M4578 6675 c-3 -3 1 -31 9 -63 8 -31 19 -74 24 -94 5 -21 13 -55 19
-75 5 -21 12 -51 16 -68 9 -42 22 -55 53 -55 59 0 69 9 81 69 18 94 20 101 29
101 4 0 14 -35 21 -77 7 -43 16 -80 20 -83 5 -3 31 -3 58 -2 42 3 51 7 55 25
3 12 21 86 41 165 20 78 34 147 31 152 -3 6 -26 10 -51 10 -52 0 -57 -7 -74
-117 -7 -40 -16 -75 -21 -79 -7 -4 -14 47 -11 86 0 3 -5 28 -12 55 l-13 50
-46 3 -45 3 -11 -51 c-6 -28 -11 -68 -11 -88 0 -43 -15 -76 -24 -52 -3 8 -11
53 -18 100 l-13 85 -50 3 c-28 2 -53 0 -57 -3z"/>
<path d="M1085 5988 c-3 -7 -4 -130 -3 -273 l3 -260 53 0 c29 -1 57 4 62 10 5
6 11 60 12 121 3 101 4 109 23 109 19 0 20 -8 25 -120 l5 -120 34 -3 c19 -2
44 -1 57 2 24 6 24 7 24 166 0 147 -2 162 -20 180 -24 24 -87 27 -116 5 -36
-27 -40 -19 -40 88 l1 102 -58 3 c-40 2 -59 -1 -62 -10z"/>
<path d="M2287 5994 c-4 -4 -7 -126 -7 -271 0 -203 3 -263 13 -264 6 0 31 -1
54 -3 24 -1 47 1 53 4 7 4 9 98 8 271 l-3 264 -55 3 c-31 2 -59 0 -63 -4z"/>
<path d="M5864 5988 c-55 -26 -50 -107 7 -127 35 -12 58 -6 81 23 25 30 22 63
-7 91 -26 27 -47 30 -81 13z"/>
<path d="M897 5904 c-4 -4 -7 -26 -7 -50 0 -33 -4 -43 -20 -47 -17 -4 -20 -14
-20 -55 0 -41 3 -51 20 -55 19 -5 20 -14 20 -121 0 -112 1 -116 23 -120 34 -8
91 -3 99 9 4 5 8 58 8 117 0 97 2 108 20 118 29 15 29 95 1 103 -16 4 -20 15
-23 53 l-3 49 -55 3 c-31 2 -59 0 -63 -4z"/>
<path d="M3487 5903 c-4 -3 -7 -25 -7 -49 0 -36 -3 -43 -23 -48 -20 -5 -24
-12 -25 -52 -2 -38 1 -47 18 -51 26 -7 29 -25 33 -148 l2 -100 49 -3 c27 -2
53 1 58 6 5 5 10 57 10 115 0 101 2 107 24 122 19 12 24 24 24 60 0 39 -3 45
-25 51 -22 6 -25 11 -25 55 l0 49 -53 0 c-30 0 -57 -3 -60 -7z"/>
<path d="M5467 5904 c-4 -4 -7 -26 -7 -50 0 -38 -3 -42 -27 -47 -16 -3 -32 -1
-37 4 -6 5 -30 9 -55 9 -53 0 -106 -36 -127 -86 -19 -45 -18 -177 1 -213 27
-52 71 -81 125 -81 56 0 73 18 68 73 -2 25 -8 33 -26 35 -34 5 -52 40 -46 92
3 25 10 50 16 57 13 16 49 17 82 2 25 -12 25 -15 28 -127 l3 -116 60 0 60 -1
5 120 c4 98 8 120 20 120 11 0 16 14 18 52 3 44 0 52 -17 58 -16 5 -21 16 -23
53 l-3 47 -55 3 c-31 2 -59 0 -63 -4z"/>
<path d="M6037 5904 c-4 -4 -7 -27 -7 -50 0 -34 -4 -44 -20 -49 -16 -5 -20
-15 -20 -55 0 -40 4 -50 20 -55 18 -6 20 -17 22 -123 l3 -117 54 -3 c36 -2 57
1 63 10 4 7 8 59 7 115 -1 106 3 123 27 123 10 0 14 13 14 50 0 45 -5 55 -27
48 -5 -2 -10 22 -13 52 l-5 55 -55 3 c-31 2 -59 0 -63 -4z"/>
<path d="M1503 5800 c-55 -33 -67 -62 -71 -170 l-4 -97 44 -47 c42 -43 48 -46
97 -46 63 0 105 20 131 63 33 53 27 67 -25 67 -34 0 -47 -5 -55 -20 -13 -24
-55 -27 -64 -4 -3 9 -6 27 -6 40 0 24 1 24 90 24 l90 0 0 55 c0 67 -20 109
-63 135 -43 26 -121 26 -164 0z m117 -86 c13 -33 6 -44 -31 -44 -34 0 -46 19
-29 49 15 29 48 27 60 -5z"/>
<path d="M2540 5813 c-24 -9 -61 -45 -78 -78 -24 -44 -23 -171 2 -216 55 -103
209 -107 265 -8 22 39 9 59 -38 59 -30 0 -43 -5 -51 -21 -17 -31 -62 -22 -71
15 -5 16 -6 33 -3 38 3 4 45 8 95 8 l89 0 0 53 c0 66 -26 116 -71 139 -32 17
-107 23 -139 11z m88 -85 c7 -7 12 -22 12 -35 0 -20 -5 -23 -35 -23 -30 0 -35
3 -35 23 0 24 17 47 35 47 6 0 16 -5 23 -12z"/>
<path d="M2838 5793 c-38 -41 -51 -94 -46 -187 4 -81 20 -123 58 -153 22 -18
80 -16 102 4 15 13 23 14 41 5 12 -6 43 -10 70 -9 l47 2 1 155 c2 177 1 182
-14 192 -21 14 -94 9 -107 -7 -11 -13 -15 -12 -37 5 -37 29 -84 26 -115 -7z
m130 -95 c12 -12 17 -104 6 -132 -3 -9 -14 -16 -24 -16 -23 0 -30 19 -30 80 0
75 17 99 48 68z"/>
<path d="M3223 5800 c-39 -23 -53 -48 -53 -93 0 -42 27 -79 80 -108 45 -26 55
-43 34 -60 -12 -10 -21 -9 -44 4 -34 21 -50 22 -50 3 0 -7 -7 -19 -15 -26 -25
-21 -17 -40 28 -60 110 -51 228 11 211 110 -7 40 -53 93 -95 111 -17 6 -29 19
-29 29 0 23 19 30 48 16 20 -8 27 -6 43 14 26 34 24 47 -11 65 -40 21 -108 19
-147 -5z"/>
<path d="M3910 5798 c-50 -35 -70 -82 -71 -170 -1 -133 46 -188 161 -188 45 0
55 4 90 38 22 20 41 48 42 62 3 23 -1 25 -39 28 -33 2 -46 -2 -60 -17 -24 -28
-59 -27 -67 2 -15 55 -13 56 87 59 l92 3 -3 55 c-5 67 -23 105 -65 130 -45 28
-124 27 -167 -2z m120 -77 c15 -29 2 -51 -30 -51 -32 0 -41 15 -29 48 10 27
44 29 59 3z"/>
<path d="M4657 5806 c-12 -9 -28 -12 -45 -7 -15 4 -40 6 -57 5 -16 -1 -38 -3
-48 -3 -16 -1 -17 -17 -15 -233 l3 -233 60 0 60 0 1 63 c1 34 4 65 7 68 3 3
16 -1 29 -10 37 -26 84 -21 115 15 34 37 40 62 42 162 1 86 -14 137 -51 167
-27 23 -75 25 -101 6z m21 -172 c2 -56 -1 -74 -14 -85 -28 -23 -47 14 -41 83
6 66 13 80 35 76 14 -3 18 -18 20 -74z"/>
<path d="M4945 5808 c-65 -35 -88 -88 -86 -196 1 -111 55 -172 151 -172 67 0
134 47 142 100 3 23 0 25 -44 28 -39 3 -49 0 -58 -17 -13 -25 -55 -28 -64 -5
-3 9 -6 27 -6 40 0 24 1 24 90 24 l90 0 0 50 c0 104 -51 160 -145 160 -27 0
-59 -6 -70 -12z m99 -84 c10 -26 7 -52 -6 -57 -18 -6 -58 10 -58 23 0 41 51
68 64 34z"/>
<path d="M1755 5801 c-5 -10 37 -167 73 -271 18 -53 17 -95 -3 -144 -23 -54
-21 -57 42 -54 l57 3 53 155 c29 85 64 188 79 229 17 50 22 76 15 80 -9 6 -67
7 -107 2 -11 -1 -15 -14 -30 -119 -12 -80 -26 -65 -48 55 l-12 68 -56 3 c-31
2 -59 -2 -63 -7z"/>
<path d="M4156 5802 c-3 -2 13 -37 34 -78 22 -40 40 -79 40 -86 0 -14 -8 -30
-58 -120 -18 -31 -29 -59 -24 -61 4 -2 29 -3 57 -3 47 1 51 3 70 38 11 21 23
38 27 38 4 0 17 -18 27 -39 20 -39 21 -39 76 -37 30 0 55 4 55 8 0 4 -18 40
-40 80 -22 40 -40 83 -40 94 0 12 15 52 34 90 19 37 32 72 30 76 -6 9 -88 8
-103 -1 -5 -4 -14 -19 -20 -34 -14 -36 -28 -34 -44 5 -13 31 -17 33 -65 34
-29 0 -54 -1 -56 -4z"/>
<path d="M5860 5803 l-25 -4 2 -166 c0 -91 5 -169 11 -175 5 -5 31 -8 58 -6
l49 3 0 175 0 175 -35 1 c-19 1 -46 0 -60 -3z"/>
<path d="M0 3883 l0 -1151 28 -6 c15 -4 51 -11 80 -16 30 -5 71 -20 91 -34 20
-14 45 -26 54 -26 33 0 145 -64 162 -92 9 -16 23 -28 32 -28 18 0 67 -27 106
-57 34 -27 113 -63 138 -63 10 0 21 -5 24 -10 16 -26 118 -91 157 -99 24 -6
71 -22 105 -36 35 -14 71 -25 80 -25 16 0 42 -16 142 -87 13 -9 58 -22 100
-29 156 -26 201 -42 201 -71 0 -13 8 -15 45 -10 35 5 54 2 87 -15 24 -13 53
-21 65 -20 13 2 23 -1 23 -7 0 -6 16 -11 36 -11 37 0 70 -24 93 -69 13 -23 69
-35 87 -20 11 9 14 8 14 -4 0 -8 7 -20 15 -27 11 -9 12 -16 2 -30 -9 -15 -8
-23 7 -39 11 -12 29 -21 41 -21 12 0 34 -9 48 -20 21 -17 30 -18 53 -10 15 6
33 9 40 6 8 -3 16 -1 19 4 4 6 17 10 30 10 23 0 23 2 24 116 1 64 2 119 3 123
1 3 -4 24 -11 47 -9 27 -12 84 -10 175 4 119 6 138 27 167 12 17 31 45 42 62
12 18 20 46 20 71 0 45 19 109 32 109 14 0 58 55 57 70 -1 8 8 37 19 63 12 27
22 58 22 69 0 11 14 36 30 55 23 26 30 43 30 77 0 65 16 101 53 117 20 9 33
22 35 37 2 12 10 22 18 22 8 0 18 10 23 23 5 12 21 29 35 36 14 8 26 21 26 28
0 8 -4 11 -10 8 -5 -3 -10 -2 -10 4 0 5 6 14 13 18 8 4 17 17 21 28 5 14 9 16
15 7 5 -9 17 5 35 42 15 31 32 56 37 56 5 0 19 10 31 22 14 14 37 24 62 25 47
3 57 11 33 24 -9 6 -17 17 -17 25 0 23 29 29 46 8 11 -15 13 -16 8 -2 -12 35
54 114 87 105 11 -3 19 -1 19 4 0 5 -7 9 -15 9 -28 0 -17 15 46 63 20 15 46
27 58 27 24 0 61 51 61 85 0 15 3 17 9 7 15 -24 20 23 15 141 -6 137 6 247 35
308 l22 46 45 -9 c70 -15 121 -49 219 -145 l43 -42 88 4 c49 3 108 8 132 11
33 5 41 3 37 -7 -5 -15 -4 -15 152 -23 40 -2 79 -9 86 -15 8 -6 19 -29 26 -51
6 -22 16 -40 21 -40 6 0 10 -11 10 -25 0 -14 5 -25 11 -25 6 0 3 -7 -6 -16
-12 -12 -13 -20 -5 -28 8 -8 13 -7 19 3 7 10 15 7 37 -17 47 -49 103 -27 88
34 -5 18 -12 24 -28 22 -19 -3 -21 2 -23 42 -1 35 0 39 5 16 7 -28 32 -50 32
-27 0 5 -6 13 -12 18 -12 7 0 11 111 30 19 3 44 15 55 27 12 11 28 22 36 24 8
2 20 10 26 17 6 8 51 32 99 54 85 38 90 39 118 24 28 -14 29 -17 24 -66 -3
-29 -15 -92 -27 -142 -12 -49 -24 -103 -27 -120 -3 -16 -12 -37 -19 -46 -10
-11 -16 -50 -18 -118 -4 -85 -1 -110 15 -144 10 -23 19 -57 19 -75 0 -19 7
-49 16 -68 11 -22 14 -47 10 -71 -3 -21 -10 -71 -15 -110 -6 -40 -17 -88 -25
-105 -60 -134 -66 -154 -67 -228 -1 -41 1 -90 3 -107 3 -18 2 -33 -2 -33 -4 0
-1 -19 7 -42 8 -24 13 -56 10 -73 -2 -16 -1 -37 3 -45 25 -50 47 -210 28 -210
-5 0 -7 -7 -4 -16 3 -8 2 -12 -3 -9 -16 9 -21 -11 -22 -85 -1 -49 -5 -73 -14
-76 -9 -4 -15 -40 -20 -117 -7 -114 -21 -180 -54 -252 -11 -22 -22 -48 -25
-58 -3 -10 -10 -16 -14 -13 -10 6 -95 -144 -110 -194 -6 -19 -19 -64 -30 -100
-12 -36 -23 -82 -27 -102 -3 -21 -10 -38 -15 -38 -8 0 -26 -91 -23 -120 1 -8
-3 -23 -10 -35 -10 -19 -23 -68 -32 -127 -2 -14 -11 -43 -19 -65 -9 -21 -18
-49 -20 -63 -3 -14 -15 -56 -26 -95 -17 -58 -18 -76 -9 -105 7 -19 15 -39 19
-45 4 -5 4 -21 0 -35 -4 -14 -1 -45 6 -70 8 -25 13 -47 13 -50 -2 -25 16 -111
28 -134 18 -35 10 -104 -11 -87 -9 8 -23 5 -51 -9 -22 -11 -50 -20 -62 -20
-14 0 -23 -6 -23 -16 0 -8 -5 -12 -10 -9 -6 4 -8 10 -5 15 8 12 -31 23 -95 24
-86 3 -147 24 -175 60 -32 42 -49 124 -41 197 l7 59 -28 1 c-15 1 -45 0 -65
-1 -27 -1 -39 4 -47 18 -7 13 -25 21 -57 25 -39 4 -54 13 -98 56 -48 47 -54
50 -88 44 -25 -4 -45 -1 -60 9 -13 8 -40 15 -60 16 -34 1 -37 -1 -48 -36 -6
-20 -15 -46 -20 -57 -5 -11 -11 -42 -14 -69 -4 -28 -9 -52 -14 -56 -24 -18
-62 -114 -62 -159 0 -39 -6 -56 -26 -81 -29 -33 -80 -59 -133 -66 -18 -2 -43
-10 -54 -16 -16 -8 -22 -8 -25 1 -2 7 -34 11 -89 11 -70 0 -89 4 -110 20 -14
11 -34 20 -44 20 -28 0 -59 48 -59 91 0 42 34 125 61 149 14 13 14 17 3 28
-14 13 -64 7 -64 -8 0 -11 -52 3 -79 22 -13 9 -20 21 -16 27 3 6 -5 15 -19 20
-32 13 -39 38 -30 119 4 37 7 77 6 90 -1 13 2 21 7 17 17 -10 23 15 26 97 2
62 0 81 -12 85 -8 3 -12 12 -9 19 4 9 -2 14 -18 14 -12 0 -33 11 -45 24 -18
20 -27 23 -40 14 -13 -8 -34 -6 -77 4 -37 10 -63 12 -71 6 -7 -6 -16 -3 -25 7
-7 9 -25 28 -40 44 -24 26 -26 33 -21 83 4 40 1 62 -10 79 -14 22 -14 42 -3
111 7 47 -4 70 -30 65 -13 -2 -24 0 -24 4 0 5 -16 9 -36 9 -23 0 -34 4 -32 12
2 6 -3 19 -12 28 -13 13 -34 17 -88 16 -51 -1 -72 2 -72 11 0 14 -61 63 -78
63 -7 0 -12 5 -12 10 0 6 -24 10 -52 10 -31 0 -71 9 -97 20 -24 11 -52 20 -62
20 -11 0 -27 4 -37 9 -9 5 -42 14 -72 21 -30 7 -77 23 -103 36 -27 13 -60 26
-74 28 -14 3 -42 14 -63 25 -21 11 -56 23 -77 27 -21 4 -51 16 -66 27 -16 11
-43 23 -60 27 -18 4 -59 17 -92 28 -33 12 -79 26 -102 32 -23 6 -49 17 -57 25
-8 8 -32 17 -53 21 -21 3 -53 14 -71 25 -18 10 -42 19 -53 19 -10 0 -19 5 -19
10 0 6 -6 10 -14 10 -8 0 -37 11 -64 25 -28 14 -55 25 -61 25 -6 0 -11 5 -11
10 0 6 -4 10 -9 10 -12 0 -102 58 -116 74 -5 7 -25 18 -43 25 -31 13 -92 73
-92 90 0 8 -53 31 -71 31 -5 0 -9 -495 -9 -1100 l0 -1100 3500 0 3500 0 0
1710 c0 1652 -1 1710 -18 1710 -10 0 -35 18 -55 40 -19 22 -39 40 -43 40 -8 0
-49 43 -61 64 -4 8 -23 22 -42 33 -19 10 -39 27 -45 37 -16 28 -89 96 -103 96
-6 0 -29 21 -50 46 -32 39 -83 77 -104 79 -3 0 -20 15 -38 33 -18 17 -36 32
-41 32 -4 0 -10 9 -13 19 -2 11 -22 28 -43 39 -22 11 -47 34 -58 52 -10 18
-36 40 -57 49 -21 10 -52 33 -69 52 -17 19 -38 41 -45 50 -8 9 -15 23 -15 31
0 9 -14 21 -32 27 -36 13 -78 48 -78 67 0 6 -7 14 -15 18 -8 3 -15 12 -15 21
0 8 -5 14 -12 12 -6 -1 -16 15 -21 36 -6 27 -14 37 -28 37 -33 0 -79 29 -79
50 0 13 -14 27 -41 40 -22 12 -52 34 -67 51 -15 16 -43 37 -62 47 -19 9 -44
31 -55 48 -11 18 -34 42 -52 54 -19 13 -30 27 -26 36 3 8 1 14 -4 14 -5 0 -24
15 -43 32 -45 42 -153 88 -206 88 -25 0 -44 5 -47 13 -4 8 -8 9 -14 1 -11 -14
-453 -28 -453 -14 0 6 10 10 22 10 12 0 19 2 16 5 -3 3 -1081 8 -2397 12
l-2391 6 0 -1150z m4703 1120 c-13 -2 -33 -2 -45 0 -13 2 -3 4 22 4 25 0 35
-2 23 -4z m-463 -1113 c0 -5 -7 -10 -16 -10 -8 0 -12 5 -9 10 3 6 10 10 16 10
5 0 9 -4 9 -10z"/>
<path d="M4808 5013 c6 -2 18 -2 25 0 6 3 1 5 -13 5 -14 0 -19 -2 -12 -5z"/>
<path d="M5108 5013 c7 -3 16 -2 19 1 4 3 -2 6 -13 5 -11 0 -14 -3 -6 -6z"/>
<path d="M5338 5013 c7 -3 16 -2 19 1 4 3 -2 6 -13 5 -11 0 -14 -3 -6 -6z"/>
<path d="M3920 4060 c0 -5 5 -10 11 -10 5 0 7 5 4 10 -3 6 -8 10 -11 10 -2 0
-4 -4 -4 -10z"/>
<path d="M3662 3965 c1 -30 6 -49 10 -42 5 8 8 9 8 1 0 -7 19 -14 43 -16 23
-3 50 -8 60 -12 14 -7 18 -2 23 24 4 17 15 37 25 43 11 7 19 15 19 20 0 17
-71 37 -130 37 l-60 0 2 -55z"/>
<path d="M3988 4003 c6 -2 18 -2 25 0 6 3 1 5 -13 5 -14 0 -19 -2 -12 -5z"/>
<path d="M4081 3734 c0 -11 3 -14 6 -6 3 7 2 16 -1 19 -3 4 -6 -2 -5 -13z"/>
<path d="M2975 3530 c27 -12 43 -12 25 0 -8 5 -22 9 -30 9 -10 0 -8 -3 5 -9z"/>
<path d="M3544 3446 c-58 -26 -68 -107 -20 -159 28 -30 57 -40 116 -39 96 1
89 -3 88 52 -1 38 -7 57 -25 76 -13 14 -23 30 -23 35 0 10 -76 49 -95 48 -5 0
-24 -6 -41 -13z"/>
<path d="M2920 3414 c0 -8 5 -12 10 -9 6 3 10 10 10 16 0 5 -4 9 -10 9 -5 0
-10 -7 -10 -16z"/>
<path d="M4225 3390 c-3 -5 -20 -12 -38 -15 -44 -10 -79 -43 -71 -68 4 -12 2
-17 -4 -13 -12 7 -22 -16 -22 -55 0 -19 5 -29 15 -29 8 0 15 6 16 13 0 6 5 2
11 -10 14 -29 65 -45 118 -37 36 6 46 13 71 53 37 58 35 77 -9 73 -29 -3 -32
-1 -32 22 0 21 5 26 24 26 29 0 41 14 23 28 -16 13 -96 22 -102 12z"/>
<path d="M4350 3329 c0 -4 11 -9 25 -11 14 -3 25 -2 25 3 0 4 19 10 43 12 23
2 12 3 -25 3 -38 -1 -68 -4 -68 -7z"/>
<path d="M3484 2668 c-3 -4 0 -8 7 -8 7 0 9 -3 6 -6 -23 -24 123 -110 193
-115 71 -4 78 -1 82 36 6 50 -29 73 -115 76 -47 2 -68 6 -72 17 -4 12 -8 12
-21 1 -10 -8 -18 -9 -22 -3 -8 12 -51 13 -58 2z"/>
<path d="M4065 2639 c-16 -16 -38 -32 -47 -35 -10 -3 -18 -9 -18 -14 0 -16
119 26 143 51 24 25 22 29 -15 28 -23 0 -43 -10 -63 -30z"/>
<path d="M3577 2496 c-17 -13 -16 -14 3 -19 15 -4 20 0 20 14 0 22 0 22 -23 5z"/>
<path d="M3532 2408 c-9 -9 -7 -14 6 -24 36 -28 87 -10 62 21 -15 18 -51 20
-68 3z"/>
</g>
</svg>
